<?xml version="1.0" encoding="utf-8" ?><svg xmlns="http://www.w3.org/2000/svg" xmlns:xlink="http://www.w3.org/1999/xlink" width="1024" height="1024" viewBox="0 0 1024 1024"><path fill="#F0F0F0" d="M0 0L1024 0L1024 1024L0 1024L0 0Z"/><path d="M297.166 175.68C300.993 175.266 308.541 175.47 312.705 175.472L340.412 175.498L431.957 175.508L570.96 175.493L614.674 175.477C639.801 175.475 655.87 175.135 680.887 180.26C715.717 187.444 748.415 202.583 776.425 224.494C825.186 262.315 856.853 318.016 864.412 379.26C871.96 440.507 854.682 502.228 816.434 550.655C777.794 599.927 720.873 631.48 658.612 638.142C642.764 639.799 627.444 639.505 611.553 639.503L553.265 639.483L516.674 639.466C508.555 639.461 499.122 639.15 491.167 640.149C476.379 642.005 462.449 648.117 451.069 657.74C439.447 667.534 430.921 680.494 426.527 695.043C422.049 710.417 423.265 731.424 423.27 747.924L423.302 796.407C423.313 803.352 423.725 817.264 422.612 823.429C421.76 828.268 419.706 832.815 416.638 836.652C411.134 843.626 403.831 847.254 395.126 848.314C390.657 848.754 382.392 848.53 377.597 848.533L345.34 848.54L313.72 848.522C301.622 848.508 291.031 849.89 280.876 841.946C274.402 836.903 270.219 829.476 269.261 821.325C268.583 815.805 268.923 805.308 268.945 799.255L269.007 760.898C268.989 742.863 268.263 719.023 269.47 701.306C272.542 655.671 289.121 611.982 317.098 575.798C355.964 525.157 413.978 492.767 477.481 486.255C492.844 484.703 507.499 485.02 522.893 485.014L581.119 485.02L618.358 485.061C626.103 485.073 636.576 485.365 644.006 484.391C664.804 481.664 683.613 470.635 696.147 453.816C708.535 437.544 713.883 416.985 710.995 396.74C706.856 368.237 687.383 344.317 660.313 334.482C643.704 328.471 626.562 329.901 609.029 329.92L569.066 329.954L383.878 329.93L326.996 329.953C318.838 329.958 303.694 330.365 296.017 329.517C290.545 328.912 285.345 326.807 280.993 323.434C274.483 318.412 270.263 310.986 269.281 302.823C268.66 297.904 268.916 290.849 268.936 285.723L269.026 258.178L268.945 222.469C268.911 206.285 267.063 192 281.912 181.253C286.875 177.66 291.127 176.385 297.166 175.68Z"/></svg>