<?xml version="1.0" encoding="utf-8" ?><svg xmlns="http://www.w3.org/2000/svg" xmlns:xlink="http://www.w3.org/1999/xlink" width="1024" height="1024" viewBox="0 0 1024 1024"><path fill="#F0F0F0" d="M242.533 0L781.464 0C786.767 1.00763 792.611 1.05013 798.036 1.72753C808.851 3.09569 819.582 5.06751 830.177 7.63376C889.317 22.4291 941.237 57.8425 976.597 107.503C997.975 137.515 1012.59 171.804 1019.44 208.009C1020.7 214.718 1021.7 221.473 1022.45 228.258C1022.76 231.109 1023.39 239.319 1024 241.702L1024 782.445L1023.89 783.007C1022.78 789.143 1022.61 796.153 1021.73 802.423C1020.41 811.84 1018.64 820.976 1016.37 830.202C1001.45 889.816 965.576 942.071 915.309 977.422C885.775 998.228 852.156 1012.52 816.679 1019.34C810.263 1020.62 803.794 1021.62 797.29 1022.34C794.332 1022.68 786.051 1023.41 783.854 1024L240.063 1024C237.086 1023.23 228.674 1022.56 225.235 1022.17C219.09 1021.43 212.975 1020.46 206.903 1019.26C171.72 1012.41 138.372 998.242 109.025 977.664C58.9195 942.507 23.0343 890.594 7.84831 831.298C5.37781 821.323 3.48801 811.213 2.18844 801.02C1.47648 795.277 1.08693 787.819 0.088026 782.347L0 781.886L0 242.253C0.730168 239.491 1.37685 229.723 1.73762 226.389C2.41654 220.117 3.28419 214.802 4.44341 208.586C11.4211 171.257 26.6545 135.959 49.0294 105.275C84.5281 56.5267 136.101 21.8806 194.652 7.44725C204.186 5.14984 213.835 3.36387 223.56 2.09697C229.518 1.3587 236.201 1.03095 242.01 0.0882837L242.533 0Z"/><path d="M297.166 175.68C300.839 175.282 307.897 175.47 311.875 175.472L338.656 175.498L424.872 175.508L570.879 175.487L614.59 175.48C638.914 175.481 655.254 175.134 679.503 179.969C714.535 186.98 747.461 202.025 775.692 223.921C824.426 261.411 856.271 316.726 864.22 377.696C872.189 439.02 855.242 500.98 817.172 549.713C778.446 599.618 721.04 631.568 658.22 638.182C642.546 639.79 627.444 639.503 611.733 639.503L554.731 639.487L517.08 639.466C508.857 639.457 498.823 639.151 490.846 640.188C475.929 642.135 461.906 648.403 450.506 658.22C439.167 667.958 430.848 680.734 426.527 695.042C422.049 710.421 423.264 731.421 423.268 747.924L423.298 796.407C423.31 803.354 423.724 817.263 422.612 823.429C421.76 828.268 419.706 832.815 416.638 836.652C411.128 843.633 403.841 847.256 395.125 848.312C390.958 848.751 382.626 848.531 378.065 848.534L345.612 848.542L313.786 848.524C301.901 848.51 291.406 849.865 281.308 842.278C274.751 837.355 270.439 830.011 269.334 821.887C268.577 816.381 268.922 805.924 268.943 799.872L269.008 762.829C268.991 744.268 268.229 719.526 269.471 701.306C272.488 656.497 288.527 613.546 315.619 577.728C354.475 526.014 413.147 492.859 477.494 486.253C492.775 484.712 507.249 485.02 522.56 485.015L580.3 485.021L618.354 485.061C626.629 485.075 637.035 485.391 645.024 484.254C665.711 481.269 684.318 470.062 696.628 453.17C708.889 436.717 714.012 416.022 710.843 395.75C706.397 367.657 687.046 344.194 660.313 334.481C643.519 328.406 625.258 329.898 607.444 329.918L567.648 329.948L382.552 329.936L326.781 329.95C318.431 329.957 303.471 330.405 295.598 329.467C290.353 328.807 285.378 326.768 281.178 323.559C274.653 318.615 270.385 311.261 269.329 303.144C268.661 298.177 268.918 291.178 268.937 286.023L269.029 257.935L268.949 222.403C268.915 206.237 267.084 191.984 281.912 181.252C286.876 177.66 291.127 176.385 297.166 175.68Z"/></svg>